<svg width="774" height="536" viewBox="0 0 774 536" fill="none" xmlns="http://www.w3.org/2000/svg">
<g opacity="0.5" clip-path="url(#clip0_1_702)">
<path d="M660.701 420.396V419.115L659.414 415.272V412.727V411.446H661.987V412.727V415.272H663.256H670.958L673.514 413.991L676.087 411.446L678.643 408.884H681.216L682.503 410.165V411.446L681.216 415.272L679.93 417.834L682.503 419.115V420.396H679.93H678.643H674.801H672.245L668.385 421.677L664.543 420.396H663.256H661.987H660.701Z" fill="#E8EBEB" stroke="white" stroke-width="3" stroke-miterlimit="10" stroke-linecap="square"/>
<path d="M29.9154 113.247L31.2019 108.123V101.717H28.6289H26.073H23.5H19.6576V97.8912H18.3711L123.505 0.615234L129.92 8.30166L135.049 9.58273L136.336 12.1449L141.465 18.5331L142.734 21.0953L141.465 22.3764L140.178 24.9385L137.605 27.5006L135.049 30.0628L131.207 36.451L126.078 39.0132L124.791 42.8564L126.078 45.4185L127.347 46.6996L131.207 49.2447H132.476V51.8068L131.207 53.0879V55.65V58.2122L129.92 60.7743L126.078 62.0554H124.791L123.505 64.6175V67.1626H126.078H127.347H128.634L127.347 71.0058L126.078 73.5679L123.505 76.1301H122.218L119.662 77.4111H118.376L117.107 79.9733L115.82 82.5354L117.107 83.8165L115.82 91.4858H117.107L118.376 92.7669L120.949 95.3291V97.8912H122.218V101.717L119.662 108.123V110.685H118.376H115.82L114.534 114.528V117.09L115.82 119.635V122.197L113.247 126.041H111.978L110.691 128.603V132.446V135.008H111.978H114.534V137.553V138.834L115.82 147.802H117.107L115.82 150.364L114.534 154.19V159.314H115.82H117.107H118.376L119.662 160.595L120.949 163.157H123.505H124.791L127.347 165.72H129.92V168.282L128.634 172.108V174.67L126.078 175.951L124.791 181.075L104.276 169.563L78.6313 152.926L52.9868 135.008L29.9154 113.247Z" fill="#E8EBEB" stroke="white" stroke-width="3" stroke-miterlimit="10" stroke-linecap="square"/>
<path d="M6.84509 233.548L8.11445 237.391L9.40096 239.936L8.11445 242.498L6.84509 243.779L5.55858 246.341L6.84509 251.466L5.55858 252.747H2.98556V251.466L0.429688 246.341V243.779V237.391L2.98556 236.11L4.27207 230.986V224.58L5.55858 222.018L8.11445 218.192H9.40096L10.6875 220.754L11.974 222.018V224.58H13.2433H15.8164L17.1029 227.142L15.8164 228.423L13.2433 229.704L11.974 230.986L9.40096 233.548H6.84509Z" fill="#E8EBEB" stroke="white" stroke-width="3" stroke-miterlimit="10" stroke-linecap="square"/>
<path d="M38.8878 344.881V343.6V341.055L41.4609 337.212L38.8878 329.526L37.6185 326.964L35.0455 323.137V316.732L32.4896 307.782L29.9166 305.219L28.6301 303.938L23.5012 298.814L22.2318 292.409L19.6588 288.583L17.1029 286.021H15.8164H13.2434H11.974L10.6875 288.583L11.974 292.409L14.5299 294.971L15.8164 296.252L13.2434 298.814V302.657L14.5299 303.938L17.1029 305.219H19.6588V307.782V312.889V314.17L22.2318 318.013V320.575L23.5012 321.856L24.7877 323.137V326.964L26.0742 329.526H28.6301L29.9166 333.369L31.2031 335.931V339.774V344.881H32.4896L37.6185 347.444L38.8878 344.881Z" fill="#E8EBEB" stroke="white" stroke-width="3" stroke-miterlimit="10" stroke-linecap="square"/>
<path d="M132.476 381.998L115.82 375.61L94.0178 366.642L73.5023 356.411L56.8462 347.443L47.8578 341.055V335.931V334.65L50.4308 333.369L47.8578 332.088V329.525H44.0154V328.244L38.8865 320.575V316.732L41.4595 314.17V307.781H38.8865L37.6172 311.608L35.0441 310.326V307.781L32.4883 303.938L31.2017 301.376L28.6287 298.814L24.7863 292.409L23.4998 288.582L22.2305 286.02V283.458L23.4998 282.177H28.6287V279.615L29.9152 274.491L31.2017 273.227H35.0441H37.6172V270.665V268.102L35.0441 266.821L31.2017 268.102L29.9152 264.259L28.6287 261.697V259.135V257.854L29.9152 255.309L31.2017 252.747V250.185L32.4883 248.903L35.0441 246.341L37.6172 243.779V242.498L35.0441 239.936L32.4883 243.779H29.9152V239.936V237.391L31.2017 233.548V230.986V228.423L29.9152 224.58V222.018H32.4883L35.0441 220.754L37.6172 218.192L38.8865 215.63L44.0154 213.068V209.224V206.662V202.836V196.431L41.4595 193.869H38.8865L37.6172 190.025L38.8865 187.463L41.4595 184.918L44.0154 181.075V175.951V172.108L47.8578 165.719V156.752V150.363L45.3019 143.958V141.396L47.8578 138.834L45.3019 135.008L44.0154 132.446H38.8865H37.6172L32.4883 135.008H29.9152H28.6287L23.4998 137.553L22.2305 135.008L23.4998 132.446L24.7863 128.602L26.0729 123.478L28.6287 119.635L29.9152 113.247L52.9867 135.008L78.6312 152.926L104.276 169.562L124.791 181.075L138.891 190.025L152.992 196.431L108.118 282.177V286.02V291.128L110.691 296.252L114.533 301.376V302.657V305.219L111.978 307.781V311.608L113.247 312.889L117.106 314.17L118.376 318.013V323.137V325.699L119.662 328.244L123.505 329.525L124.791 332.088L126.078 333.369V335.931V343.6V344.881L127.347 348.724L129.92 350.006L131.207 351.287L132.476 353.849L133.762 357.692V360.254L132.476 362.799L129.92 364.08V366.642L128.634 369.205L129.92 371.767H131.207V373.048V375.61V379.436L132.476 381.998Z" fill="#E8EBEB" stroke="white" stroke-width="3" stroke-miterlimit="10" stroke-linecap="square"/>
<path d="M152.991 196.431L108.117 282.177V286.02V291.127L110.69 296.252L114.533 301.376V302.657V305.219L111.977 307.781V311.607L113.246 312.889L117.106 314.17L118.375 318.013V323.137V325.699L119.661 328.244L123.504 329.525L124.79 332.088L126.077 333.369V335.931V343.6V344.881L127.346 348.724L129.919 350.005L131.206 351.287L132.475 353.849L133.762 357.692V360.254L132.475 362.799L129.919 364.08V366.642L128.633 369.204L129.919 371.767H131.206V373.048V375.61V379.436L132.475 381.998L138.891 384.56L164.535 392.247L173.506 394.809L224.795 224.58L196.578 215.63L174.793 206.662L152.991 196.431Z" fill="#E8EBEB" stroke="white" stroke-width="3" stroke-miterlimit="10" stroke-linecap="square"/>
<path d="M224.797 224.58L173.508 394.809L192.737 399.916L220.954 407.603L251.711 413.991L260.699 415.272L288.899 242.498L267.097 237.391L246.582 230.986L224.797 224.58Z" fill="#E8EBEB" stroke="white" stroke-width="3" stroke-miterlimit="10" stroke-linecap="square"/>
<path d="M288.9 242.498L260.699 415.272L282.484 419.115L314.544 422.958L324.802 424.239H326.071L324.802 420.396L326.071 417.834L331.2 365.361L345.317 353.849L392.747 303.938L388.904 301.376L383.776 298.814L378.647 297.533L376.074 298.814L369.675 301.376L359.418 303.938L354.289 305.219L350.429 306.5V305.219L351.716 303.938L354.289 302.657H358.131L361.973 298.814L363.26 297.533L361.973 292.409L360.687 286.02V280.896L359.418 274.491L358.131 270.665H356.845H354.289H351.716H350.429L347.873 268.102L346.587 266.821L345.317 268.102L344.031 266.821L342.744 264.259L344.031 260.416L345.317 255.309L346.587 252.747V250.184L331.2 248.903L310.685 246.341L288.9 242.498Z" fill="#E8EBEB" stroke="white" stroke-width="3" stroke-miterlimit="10" stroke-linecap="square"/>
<path d="M486.335 388.404L483.78 387.123H481.207L478.651 388.404L476.078 387.123V384.561L474.791 379.436L472.235 375.61H468.393L467.106 371.767L465.82 367.924L463.264 366.643L459.404 364.08L458.135 360.254L459.404 355.13L458.135 352.568L456.849 348.725L455.562 343.6L454.293 338.493L455.562 333.369L456.849 328.245V326.964H453.006L447.877 328.245L441.462 326.964H437.619L433.777 329.526H432.491L427.362 328.245L426.075 325.7L424.789 321.856L420.946 320.575L413.262 319.294L408.133 314.17H406.846L405.56 307.782L404.29 305.22L400.431 303.938H397.875H395.302H392.746L345.317 353.849L331.199 365.362L326.07 417.834L328.643 419.115L329.93 425.521L331.199 426.802L338.901 429.364L346.586 431.909L353.001 435.752L358.13 438.314L360.686 442.157H363.259H367.101L372.23 438.314L374.803 437.033L385.061 442.157H387.617L390.173 439.595L391.459 438.314L396.588 437.033L397.875 434.471L399.161 430.628L400.431 428.083L404.29 426.802L409.419 429.364L417.104 430.628L420.946 433.19L423.519 437.033L424.789 440.876L427.362 442.157L432.491 444.72L433.777 446.001L435.046 448.546L437.619 449.827V452.389V461.356L438.906 466.464L440.175 467.745L445.304 469.026L446.591 470.307L449.164 471.588L455.562 469.026L460.691 470.307L464.533 471.588L470.949 470.307L474.791 471.588L476.078 472.869L478.651 474.15L481.207 472.869H482.493H485.049L487.622 474.15V475.431L488.908 479.274L490.178 484.382L494.037 488.225V490.787V493.349L490.178 494.63L487.622 493.349L486.335 490.787L482.493 488.225L477.364 484.382V485.663L478.651 486.944L479.92 489.506V493.349L477.364 498.473L476.078 503.581L477.364 509.986L476.078 513.829L472.235 515.11L470.949 518.936L468.393 525.342L469.662 527.904L468.393 530.466H467.106H463.264V533.028V534.309L464.533 535.573H465.82L469.662 534.309L476.078 530.466L478.651 526.623L482.493 522.78H486.335H490.178L494.037 521.498L497.88 517.672H500.436L504.278 516.391L506.851 515.11L508.138 513.829V512.548V511.267H505.564H499.149H497.88V509.986L499.149 506.143L504.278 502.299L509.407 499.737L514.536 498.473L519.665 499.737L526.08 498.473L529.922 495.911L533.782 494.63L537.624 488.225L542.753 480.555L549.152 475.431L553.011 472.869L559.409 467.745H558.14L553.011 466.464H549.152L544.023 469.026L541.467 470.307H537.624H529.922L514.536 463.919H509.407L501.722 457.513L496.593 453.67L495.307 449.827L488.908 390.966L486.335 388.404Z" fill="#E8EBEB" stroke="white" stroke-width="3" stroke-miterlimit="10" stroke-linecap="square"/>
<path d="M700.446 407.603V403.759V402.478V397.354V396.073H697.873H695.317V398.635V401.197L694.031 406.322L691.475 408.884V412.727L692.744 416.553L695.317 419.115L700.446 417.834H701.732L704.288 415.272L706.861 412.727V408.884V407.603V406.322V405.04L701.732 407.603H700.446Z" fill="#E8EBEB" stroke="white" stroke-width="3" stroke-miterlimit="10" stroke-linecap="square"/>
<path d="M661.988 430.628V433.19L663.258 434.471H665.831L669.673 433.19L670.96 431.909L672.246 434.471L670.96 437.033L667.117 438.314L668.387 440.877L667.117 442.158L663.258 440.877L659.415 442.158L658.129 444.72L655.573 449.827L651.731 453.67L649.158 456.232L647.871 460.076L649.158 466.464L650.444 467.745H655.573L658.129 470.307H659.415L661.988 469.026V466.464L664.544 463.919L665.831 461.357L668.387 456.232V452.389L670.96 448.546H673.516H676.089L677.375 444.72L678.644 442.158L683.773 440.877L687.616 437.033L692.745 430.628L697.874 426.802L700.447 424.24V422.959L697.874 420.396H694.031L690.189 422.959L683.773 424.24H678.644L674.802 426.802H672.246L670.96 425.521H668.387L665.831 426.802V428.083H663.258L661.988 430.628Z" fill="#E8EBEB" stroke="white" stroke-width="3" stroke-miterlimit="10" stroke-linecap="square"/>
<path d="M726.09 329.526V335.931L729.932 334.65L732.488 337.212L735.061 338.493L741.476 334.65L744.032 329.526L746.605 328.245H750.448L751.734 329.526L750.448 335.931V339.774L751.734 342.337H754.29L755.577 339.774L758.133 335.931L759.419 332.088L761.992 333.369V339.774V342.337L759.419 343.601V347.444V348.725L763.261 350.006V348.725V343.601L764.548 342.337L765.834 343.601V344.882V347.444V350.006L767.104 353.849L769.677 350.006H770.963H772.233L773.519 351.287L772.233 356.411V360.255V364.081L769.677 366.643H768.39L767.104 364.081L765.834 365.362L763.261 366.643H761.992H760.706L759.419 362.8L760.706 358.973V355.13L759.419 353.849L758.133 352.568V355.13L755.577 358.973L754.29 362.8L751.734 365.362V369.205L750.448 373.048L749.161 375.61H746.605H744.032V374.329V373.048L746.605 369.205L749.161 364.081V360.255H746.605L744.032 362.8L742.746 366.643H741.476L738.903 365.362H737.617L736.348 367.924L732.488 369.205L719.674 374.329L715.832 375.61L710.703 380.717L706.861 381.999H704.288L701.732 380.717L704.288 375.61L706.861 369.205V367.924L710.703 366.643L708.13 365.362L706.861 364.081L704.288 366.643H701.732L700.445 365.362V362.8H701.732L704.288 358.973L706.861 356.411L708.13 352.568L706.861 350.006V342.337L704.288 334.65L706.861 328.245L704.288 323.138L706.861 316.732V311.608L713.259 306.501L715.832 305.22H717.119V307.782V310.327L713.259 314.17V319.294L715.832 323.138V329.526V335.931V337.212L717.119 338.493L719.674 337.212V333.369L723.517 329.526H726.09Z" fill="#E8EBEB" stroke="white" stroke-width="3" stroke-miterlimit="10" stroke-linecap="square"/>
<path d="M700.446 314.17H704.289V312.889L706.862 307.781L710.704 303.938V298.814L706.862 294.971L704.289 291.127L701.733 283.458L700.446 282.177L697.873 280.896H691.475L688.902 279.615L683.773 277.053H682.504H678.644L677.375 279.615L674.802 283.458L673.515 289.863L669.673 292.409L668.386 294.971L667.117 298.814L665.83 302.657H664.544H661.988V301.376V298.814L663.257 292.409L667.117 288.582L670.959 283.458L673.515 277.053L676.088 275.772L678.644 273.227V270.665H676.088H670.959L669.673 268.102H668.386L667.117 270.665L663.257 274.491L658.129 270.665L655.573 273.227L650.444 270.665L646.601 268.102L644.028 266.821H637.63L635.057 265.54L632.501 261.697L631.215 259.135V252.747L628.642 248.903L626.086 246.341H622.243L620.957 243.779L619.67 239.936L611.986 237.391L606.857 233.548L603.014 227.142L600.441 224.58L594.026 222.018L591.47 218.192L588.897 215.63L585.055 214.349L586.341 222.018L588.897 227.142L594.026 230.985L600.441 239.936L599.155 246.341H606.857L609.413 255.309L613.272 260.416L609.413 266.821L620.957 279.615L619.67 283.458L626.086 288.582L620.957 298.814L613.272 296.252L609.413 298.814L599.155 296.252L595.312 292.409L599.155 305.219L590.184 298.814V305.219L592.757 310.326L595.312 318.013L599.155 323.137V328.244L601.728 335.931L609.413 328.244V338.493L618.384 343.6L624.799 335.931L631.215 344.881L635.057 338.493L631.215 329.525V323.137L635.057 325.699V328.244L640.186 334.65L697.873 307.781L700.446 314.17Z" fill="#E8EBEB" stroke="white" stroke-width="3" stroke-miterlimit="10" stroke-linecap="square"/>
<path d="M605.57 422.958L608.126 426.801H609.413L614.542 425.52L615.828 422.958L617.115 421.677H619.67L620.957 422.958V429.364L624.799 442.157L626.086 444.719H631.215L632.501 446V449.827L636.344 451.108V452.389H638.9V449.827L642.759 448.546L646.601 447.281L650.444 442.157L655.573 439.595L658.129 437.033L659.415 431.909V429.364L661.988 430.628L663.258 428.083L665.831 426.801L664.544 425.52L667.117 422.958H664.544L659.415 424.239L654.286 419.115V413.991L653.017 412.727H647.871V410.165L649.157 406.321L647.871 405.04L646.601 403.759H644.028L642.759 406.321H640.186L637.63 405.04H633.771H631.215L627.372 406.321H626.086L624.799 407.602L622.244 408.884H620.957H618.384L615.828 407.602L614.542 408.884L613.272 410.165L611.986 412.727V416.553V417.834L610.699 420.396L608.126 421.677L605.57 422.958Z" fill="#E8EBEB" stroke="white" stroke-width="3" stroke-miterlimit="10" stroke-linecap="square"/>
<path d="M605.57 422.958L608.126 421.677L610.699 420.396L611.986 417.834V416.553V412.726L613.272 410.164L614.541 408.883L615.828 407.602L618.384 408.883H620.957H622.243L624.799 407.602L626.086 406.321H627.372L631.215 405.04H633.771L635.057 401.197L636.344 398.635L638.899 397.354H642.759L644.028 396.073L645.315 393.528L650.444 390.965L651.73 388.403V385.841L649.157 384.56L647.871 381.998L646.601 380.717H642.759L636.344 381.998L631.215 384.56L624.799 388.403L619.67 392.246L613.272 399.916L608.126 406.321L601.728 413.99L599.155 422.958L596.599 429.363L594.026 435.752L590.184 440.876L585.055 443.438L577.37 447.281L573.527 452.388L569.668 457.513L568.399 463.918L565.826 467.744L559.41 471.587L555.568 472.868L554.281 475.431L569.668 470.306L577.37 469.025L585.055 467.744L587.628 466.463L588.897 463.918L590.184 461.356H595.312L599.155 452.388V449.826L596.599 446V442.157L599.155 437.033L601.728 429.363L605.57 422.958Z" fill="#E8EBEB" stroke="white" stroke-width="3" stroke-miterlimit="10" stroke-linecap="square"/>
<path d="M644.027 369.205L647.87 366.642L654.285 365.361H656.858H660.701L667.116 366.642L670.958 365.361H673.514L674.801 367.923V369.205V370.486L670.958 371.767H668.385L665.829 373.048L659.414 371.767H654.285L651.729 369.205H647.87H645.314H644.027Z" fill="#E8EBEB" stroke="white" stroke-width="3" stroke-miterlimit="10" stroke-linecap="square"/>
<path d="M479.922 202.837H490.18L494.039 209.225L500.437 206.663L505.566 200.274H511.982L517.111 211.787L526.082 209.225L527.368 215.63L532.497 218.192L535.053 215.63L540.182 218.192L545.311 215.63H549.153L544.024 222.018L547.884 229.705L546.597 237.391L549.153 242.499L555.569 246.342L556.855 248.904L561.984 246.342L565.827 248.904L564.54 259.135L569.669 255.309V246.342H576.084L578.64 237.391L586.342 246.342L582.5 233.548L585.056 228.424L582.5 222.018L583.769 213.068L585.056 214.349L586.342 222.018L588.898 227.143L594.027 230.986L595.313 237.391L600.442 239.936L599.156 246.342H606.858L609.414 255.309L613.273 260.416L609.414 266.822L617.116 275.772L620.958 279.615L619.671 283.459L626.087 288.583L620.958 298.814L613.273 296.252L609.414 298.814L599.156 296.252L595.313 292.409L599.156 305.22L590.185 298.814V305.22L592.758 310.327L595.313 318.013L599.156 323.138V328.245L601.729 335.931L609.414 328.245V338.493L618.385 343.601L624.8 335.931L631.216 344.882L635.058 338.493L631.216 329.526V323.138L635.058 325.7V328.245L640.187 334.65L697.874 307.782L700.447 314.17L697.874 320.575L688.903 323.138V333.369L682.505 341.056V344.882L672.247 352.568L659.416 357.692L633.772 365.362L619.671 369.205L615.829 375.61L617.116 385.842L608.127 389.685L599.156 405.041L594.027 422.959L591.471 428.083L587.629 437.033L574.798 443.439L568.4 452.389L565.827 458.794L563.271 463.919L559.411 467.745H558.142L553.013 466.464H549.153L544.024 469.026L541.469 470.307H529.924L514.538 463.919H509.409L501.724 457.513L496.595 453.67L495.309 449.827L488.91 390.966L486.337 388.404L488.91 381.999L495.309 380.717L491.466 373.048L492.753 366.643L491.466 360.255L488.91 356.411L487.624 352.568L490.18 344.882L483.781 341.056L482.495 333.369L488.91 328.245L496.595 320.575L505.566 305.22L511.982 303.939L506.853 297.533L503.01 289.864L495.309 277.053L485.051 270.665L482.495 268.103L483.781 260.416L488.91 252.747V243.78L485.051 239.936L483.781 233.548H479.922V228.424L482.495 222.018L474.793 218.192V211.787L479.922 202.837Z" fill="#E8EBEB" stroke="white" stroke-width="3" stroke-miterlimit="10" stroke-linecap="square"/>
<path d="M433.777 31.3436V33.8886V36.4508L435.047 37.7318L437.62 39.0129L438.906 40.294L440.176 42.8561V45.4183H444.035H446.591H449.164H450.433H453.006H454.293L455.562 42.8561V40.294L454.293 39.0129V37.7318L451.72 36.4508H449.164V33.8886L447.878 31.3436V30.0625H446.591H444.035H442.749L438.906 31.3436H436.333H433.777Z" fill="#E8EBEB" stroke="white" stroke-width="3" stroke-miterlimit="10" stroke-linecap="square"/>
<path d="M328.644 92.7665L329.93 88.9233V86.3611H328.644L326.071 83.8161L323.515 82.535L322.228 77.4107V73.5675L320.942 71.0054H319.672H317.099H315.813L314.543 67.1622V60.7739L315.813 51.8064L317.099 45.4181L315.813 39.0128L317.099 37.7317V36.4506L310.684 30.0624H309.415L306.842 31.3434L305.572 33.8885V39.0128V46.6992V51.8064V54.3685L302.999 55.6496L301.713 54.3685L299.157 53.0875V49.2443L300.443 42.856L301.713 39.0128L300.443 33.8885H297.87H295.314L291.455 37.7317L290.185 39.0128H286.326H285.057L283.77 37.7317L285.057 36.4506H287.612V33.8885L286.326 30.0624H285.057H282.484H278.641H277.355H276.068V27.5002H278.641L279.928 24.9381L281.197 23.657V21.0949L279.928 18.5327H278.641H276.068L273.512 21.0949H272.226L268.383 22.3759L267.097 21.0949H263.254H260.699L259.412 22.3759L258.126 24.9381L255.57 33.8885H252.997H249.154V37.7317L251.71 39.0128L255.57 40.2938L259.412 42.856L263.254 45.4181V46.6992H260.699H256.839L252.997 45.4181H250.441H247.868L245.312 49.2443L246.581 51.8064H249.154L250.441 53.0875L258.126 55.6496L263.254 58.2118L270.956 64.6171L273.512 67.1622V68.4432L272.226 71.0054H270.956L267.097 68.4432L260.699 67.1622L254.283 64.6171L249.154 62.055H246.581L244.025 64.6171V67.1622V71.0054L247.868 73.5675L252.997 77.4107L260.699 82.535L259.412 86.3611V91.4854V92.7665L260.699 95.3286H263.254H268.383H270.956L274.799 97.8908H278.641H282.484L285.057 95.3286H287.612H290.185H294.028L295.314 92.7665L296.584 91.4854H297.87H300.443V95.3286H301.713L304.286 97.8908L314.543 106.841H318.386L322.228 104.279H323.515L324.801 99.1719L323.515 97.8908H320.942H319.672H318.386H317.099V95.3286L318.386 92.7665L320.942 91.4854H324.801L327.357 92.7665H328.644Z" fill="#E8EBEB" stroke="white" stroke-width="3" stroke-miterlimit="10" stroke-linecap="square"/>
<path d="M313.258 27.5004L315.814 24.9383L319.673 23.6572L322.229 24.9383L323.516 27.5004L324.802 31.3437V36.4509L323.516 37.7319L322.229 39.013H320.943L319.673 37.7319V33.8887L318.387 30.0626H314.544L313.258 27.5004Z" fill="#E8EBEB" stroke="white" stroke-width="3" stroke-miterlimit="10" stroke-linecap="square"/>
<path d="M345.317 71.0055L344.03 68.4434L341.457 62.0551L338.901 58.2119L335.059 54.3687L332.486 51.8065H331.199V45.4183L332.486 42.8561H333.772L335.059 45.4183L337.615 46.6993L338.901 49.2444H341.457L342.744 45.4183L344.03 40.294L342.744 36.4508H341.457V33.8886V31.3436L342.744 30.0625H345.317L347.872 31.3436L349.159 33.8886H351.715L354.288 31.3436H355.557L356.844 33.8886V37.7318L355.557 40.294L353.001 42.8561L351.715 45.4183L353.001 46.6993L355.557 49.2444H356.844L358.13 51.8065V54.3687L356.844 58.2119L354.288 62.0551L351.715 67.1623L349.159 68.4434L345.317 71.0055Z" fill="#E8EBEB" stroke="white" stroke-width="3" stroke-miterlimit="10" stroke-linecap="square"/>
<path d="M338.902 108.122L337.615 106.841V104.279H338.902L341.458 101.717L342.744 99.172V97.8909L344.031 95.3287L345.317 92.7666H346.587L347.873 95.3287H349.16V97.8909L350.429 99.172L353.002 104.279L354.288 106.841L356.844 108.122V110.685V113.247L355.558 114.528L354.288 117.09H353.002H350.429L349.16 114.528L346.587 113.247L342.744 110.685L338.902 108.122Z" fill="#E8EBEB" stroke="white" stroke-width="3" stroke-miterlimit="10" stroke-linecap="square"/>
<path d="M367.103 60.7742L365.816 55.6499L364.547 51.8067V49.2445L365.816 45.4184V42.8563L364.547 37.732V36.4509V33.8888L367.103 30.0626L369.676 27.5005H372.232L373.518 30.0626H376.074H381.203H382.489H383.776V36.4509L381.203 39.013V45.4184V49.2445L379.934 51.8067H377.361H374.805L373.518 49.2445H372.232H370.945V51.8067L372.232 54.3688V58.212V60.7742H370.945H368.389H367.103Z" fill="#E8EBEB" stroke="white" stroke-width="3" stroke-miterlimit="10" stroke-linecap="square"/>
<path d="M476.077 117.09L474.79 114.528H472.234L469.661 117.09H467.105V119.635V126.04L468.392 129.884L470.948 132.446H474.79L476.077 129.884V126.04L477.363 119.635L476.077 117.09Z" fill="#E8EBEB" stroke="white" stroke-width="3" stroke-miterlimit="10" stroke-linecap="square"/>
<path d="M422.232 156.752H419.659H418.39L415.817 163.157L413.261 175.951L414.548 178.513L417.104 181.075V184.918L415.817 187.463L413.261 190.026L411.975 191.307V196.431H413.261H415.817H419.659H420.946H423.519L424.788 202.836H426.075L428.648 200.274L429.917 196.431L431.204 191.307L432.49 190.026H433.777H436.333L437.619 187.463V184.918H438.906H440.175L441.461 187.463L444.034 190.026L445.304 191.307L447.877 193.869H451.719H454.292L455.562 191.307V190.026V184.918L454.292 183.637H453.006L449.163 184.918H447.877L446.59 183.637L445.304 181.075L446.59 175.951H445.304L444.034 174.67H438.906L433.777 172.108L429.917 169.563V165.719H427.361H426.075H424.788L422.232 163.157L420.946 160.595L422.232 156.752Z" fill="#E8EBEB" stroke="white" stroke-width="3" stroke-miterlimit="10" stroke-linecap="square"/>
<path d="M447.877 202.836H445.304L442.748 205.381L441.461 206.663L438.906 205.381H436.333L433.777 209.225L432.49 213.068V215.63H433.777H436.333H437.619H440.175L441.461 214.349L442.748 213.068L445.304 211.787L447.877 209.225L449.163 205.381L447.877 202.836Z" fill="#E8EBEB" stroke="white" stroke-width="3" stroke-miterlimit="10" stroke-linecap="square"/>
<path d="M464.534 222.018H467.107L468.393 215.63V213.068L467.107 211.787L464.534 209.225L463.264 211.787L460.691 214.349V218.192H461.978L463.264 222.018H464.534Z" fill="#E8EBEB" stroke="white" stroke-width="3" stroke-miterlimit="10" stroke-linecap="square"/>
<path d="M142.734 21.095L141.465 22.376L140.178 24.9382L137.605 27.5003L135.049 30.0625L131.207 36.4507L126.078 39.0129L124.792 42.8561L126.078 45.4182L127.347 46.6993L131.207 49.2444H132.476V51.8065L131.207 53.0876V55.6497V58.2119L129.92 60.774L126.078 62.0551H124.792L123.505 64.6172V67.1623H126.078H127.347H128.634L127.347 71.0055L126.078 73.5676L123.505 76.1298H122.219H119.663L118.376 77.4108L117.107 79.973L115.82 82.5351L117.107 83.8162L115.82 91.4855H117.107L118.376 92.7666L120.949 95.3288V97.8909H122.219V101.717L119.663 108.122V110.685H118.376H115.82L114.534 114.528V117.09L115.82 119.635V122.197L113.247 126.04H111.978L110.691 128.602V132.446V135.008H111.978H114.534V137.553V138.834L115.82 147.801H117.107L115.82 150.364L114.534 154.19V159.314H115.82H117.107H118.376L119.663 160.595L120.949 163.157H123.505H124.792L127.347 165.719H129.92V168.281L128.634 172.108V174.67L126.078 175.951L124.792 181.075L138.892 190.026L152.992 196.431L174.794 206.662L196.579 215.63L224.796 224.58L246.581 230.986L267.097 237.391L288.899 242.498L310.684 246.341L331.2 248.904L346.586 250.185L349.159 246.341V239.936L350.429 236.11L358.131 227.142L360.686 222.018L363.259 218.192L365.815 209.224H364.546H360.686L359.417 206.662L363.259 202.836L372.231 206.662L377.36 205.381V200.274L374.804 196.431L367.102 191.307L347.873 187.463L346.586 184.918V183.637L347.873 181.075L355.558 183.637L370.944 190.026L373.517 193.869L378.646 191.307L386.331 196.431L392.746 191.307L404.291 187.463L409.419 178.513L411.975 172.108L397.875 169.563L388.904 160.595V156.752L403.004 163.157L408.133 165.719L411.975 160.595L415.818 156.752L414.548 154.19L411.975 150.364L415.818 147.801L426.076 154.19L428.649 152.926L426.076 147.801L427.362 143.958L432.491 150.364L438.906 147.801L441.462 143.958L444.035 138.834L445.305 135.008L436.333 123.478L438.906 117.09L440.176 104.279L424.789 95.3288L418.391 101.717L419.66 117.09L413.262 126.04L409.419 135.008L401.718 128.602L404.291 114.528L397.875 104.279L391.46 119.635L388.904 108.122L373.517 97.8909L377.36 88.9234L369.675 67.1623L365.815 62.0551L364.546 64.6172L355.558 92.7666L368.388 104.279L358.131 122.197L353.002 138.834L344.03 117.09L333.773 123.478L322.228 126.04L301.713 113.247L300.443 101.717L279.928 104.279L285.057 113.247L279.928 132.446L268.383 106.841L244.026 101.717L242.739 92.7666H249.154L247.868 83.8162L236.324 79.973L228.639 67.1623L220.954 62.0551L215.825 54.3686L206.837 53.0876L208.123 45.4182L200.438 49.2444L196.579 42.8561L199.152 33.8886L196.579 30.0625L191.467 33.8886L186.338 36.4507L173.508 33.8886L164.536 27.5003L173.508 30.0625L183.765 31.3435L186.338 30.0625L174.794 23.6571H163.25L155.565 24.9382L150.436 30.0625L147.863 23.6571L142.734 21.095Z" fill="#E8EBEB" stroke="white" stroke-width="3" stroke-miterlimit="10" stroke-linecap="square"/>
<path d="M410.688 31.3438L411.975 36.451L410.688 42.8563L405.559 49.2446L404.29 54.3689L405.559 58.2121L411.975 64.6174L413.261 73.5678L415.817 76.13H419.659L422.232 68.4436L418.39 64.6174L417.103 60.7742L418.39 58.2121V54.3689L415.817 51.8067H414.548L415.817 45.4184L422.232 37.732L427.361 31.3438H428.648L431.204 33.8888V39.0131L433.777 42.8563L435.046 49.2446L433.777 60.7742L435.046 62.0553L441.461 55.6499L444.034 54.3689L447.877 60.7742H450.433L451.719 54.3689L447.877 51.8067V49.2446L453.006 46.6995L459.404 49.2446L460.69 55.6499L465.819 51.8067L467.106 55.6499V60.7742L472.235 62.0553L474.791 67.1625L478.65 64.6174L477.364 58.2121H481.206L486.335 64.6174L483.779 71.0057L490.177 76.13L494.037 73.5678L495.306 67.1625H503.008L504.278 73.5678L499.149 79.9732L500.435 82.5353L506.851 77.411V73.5678L509.406 71.0057H514.535L510.693 77.411L506.851 82.5353H511.979L517.108 83.8164L520.951 82.5353L522.237 86.3615L519.664 88.9236H514.535L509.406 91.4857L514.535 97.8911H520.951L527.366 104.279H532.495L537.624 101.717H540.18L542.753 104.279L541.466 108.123L544.022 110.685H549.151L551.724 108.123L553.011 110.685L554.28 113.247L560.695 110.685H564.538L567.111 113.247L565.824 117.09H561.982V119.635L563.268 123.478H564.538V128.603H560.695V132.446L564.538 135.008V141.396H560.695L558.139 138.834H555.566L553.011 137.553L549.151 128.603L546.595 126.04L538.893 128.603H531.208L535.051 132.446V135.008H529.922H528.653L532.495 138.834L536.337 143.958H540.18L544.022 150.364L549.151 147.802L554.28 150.364L555.566 156.752L564.538 159.314L563.268 163.157V169.563L568.397 175.951L569.667 178.513H559.409L545.309 169.563L544.022 172.108H538.893L537.624 175.951L549.151 181.075L553.011 184.919H561.982L565.824 187.464L561.982 196.431L545.309 191.307H537.624L532.495 190.026L523.524 191.307L517.108 184.919L518.395 178.513H513.266L503.008 174.67L499.149 165.72H494.037L495.306 174.67L488.908 172.108L485.048 175.951L474.791 178.513L467.106 172.108L470.948 160.595H476.077H483.779L494.037 156.752V152.926L490.177 147.802L492.75 141.396L496.593 135.008H505.564L510.693 138.834H515.822L519.664 135.008L517.108 128.603H506.851V132.446H501.722L496.593 128.603L497.879 122.197L496.593 119.635L479.92 101.717L467.106 97.8911L463.264 92.7668L458.135 86.3615L451.719 82.5353H447.877L451.719 91.4857L450.433 92.7668L441.461 88.9236H436.333L429.917 95.329L414.548 88.9236H406.846L397.874 82.5353L396.588 76.13H399.161L404.29 77.411L405.559 73.5678H399.161L397.874 68.4436L392.745 67.1625L391.459 60.7742L392.745 51.8067L396.588 45.4184L405.559 33.8888L410.688 31.3438Z" fill="#E8EBEB" stroke="white" stroke-width="3" stroke-miterlimit="10" stroke-linecap="square"/>
</g>
<defs>
<clipPath id="clip0_1_702">
<rect width="774" height="536" fill="white"/>
</clipPath>
</defs>
</svg>
